<svg width="494" height="385" xmlns="http://www.w3.org/2000/svg" xmlns:xlink="http://www.w3.org/1999/xlink" xml:space="preserve" overflow="hidden"><g transform="translate(-376 -181)"><path d="M812.494 476.007C797.535 452.737 780.622 426.427 762.991 399L482.712 399 433.213 476 812.49 476ZM814.418 479C846.905 529.537 869.703 565 869.703 565L376 565 431.284 479 814.418 479ZM761.063 396.002 711.563 319 534.139 319 484.64 396 761.062 396 761.063 396.002ZM709.59 315.93C632.246 195.615 622.851 181 622.851 181L536.068 316 709.635 316 709.59 315.93Z" fill="#49C0D0" fill-rule="evenodd"/><path d="M590.707 284.318 589.347 297 584.213 297 581.561 273.2 585.199 273.2 587.205 291.968 589.007 273.2 592.611 273.2 594.481 292.104 596.419 273.2 599.683 273.2 597.031 297 592.067 297 590.707 284.318ZM601.553 273.2 605.293 273.2 605.293 297 601.553 297 601.553 273.2ZM607.537 278.912C607.537 276.985 607.996 275.506 608.914 274.475 609.832 273.444 611.209 272.928 613.045 272.928 614.881 272.928 616.258 273.444 617.176 274.475 618.094 275.506 618.553 276.985 618.553 278.912L618.553 279.66 615.017 279.66 615.017 278.674C615.017 277.813 614.852 277.206 614.524 276.855 614.195 276.504 613.736 276.328 613.147 276.328 612.557 276.328 612.098 276.504 611.77 276.855 611.441 277.206 611.277 277.813 611.277 278.674 611.277 279.49 611.458 280.21 611.821 280.833 612.183 281.456 612.637 282.046 613.181 282.601 613.725 283.156 614.308 283.712 614.932 284.267 615.555 284.822 616.139 285.429 616.683 286.086 617.227 286.743 617.68 287.491 618.043 288.33 618.405 289.169 618.587 290.155 618.587 291.288 618.587 293.215 618.116 294.694 617.176 295.725 616.235 296.756 614.847 297.272 613.011 297.272 611.175 297.272 609.786 296.756 608.846 295.725 607.905 294.694 607.435 293.215 607.435 291.288L607.435 289.826 610.971 289.826 610.971 291.526C610.971 292.387 611.146 292.988 611.498 293.328 611.849 293.668 612.319 293.838 612.909 293.838 613.498 293.838 613.968 293.668 614.32 293.328 614.671 292.988 614.847 292.387 614.847 291.526 614.847 290.71 614.665 289.99 614.303 289.367 613.94 288.744 613.487 288.154 612.943 287.599 612.399 287.044 611.815 286.488 611.192 285.933 610.568 285.378 609.985 284.771 609.441 284.114 608.897 283.457 608.443 282.709 608.081 281.87 607.718 281.031 607.537 280.045 607.537 278.912ZM620.729 273.2 626.645 273.2C628.526 273.2 629.926 273.699 630.844 274.696 631.762 275.693 632.221 277.155 632.221 279.082L632.221 291.118C632.221 293.045 631.762 294.507 630.844 295.504 629.926 296.501 628.526 297 626.645 297L620.729 297 620.729 273.2ZM624.469 276.6 624.469 293.6 626.577 293.6C627.166 293.6 627.631 293.43 627.971 293.09 628.311 292.75 628.481 292.149 628.481 291.288L628.481 278.912C628.481 278.051 628.311 277.45 627.971 277.11 627.631 276.77 627.166 276.6 626.577 276.6L624.469 276.6ZM638.035 291.526C638.035 292.387 638.21 292.994 638.562 293.345 638.913 293.696 639.383 293.872 639.973 293.872 640.562 293.872 641.032 293.696 641.384 293.345 641.735 292.994 641.911 292.387 641.911 291.526L641.911 278.674C641.911 277.813 641.735 277.206 641.384 276.855 641.032 276.504 640.562 276.328 639.973 276.328 639.383 276.328 638.913 276.504 638.562 276.855 638.21 277.206 638.035 277.813 638.035 278.674L638.035 291.526ZM634.295 278.912C634.295 276.985 634.782 275.506 635.757 274.475 636.731 273.444 638.137 272.928 639.973 272.928 641.809 272.928 643.214 273.444 644.189 274.475 645.163 275.506 645.651 276.985 645.651 278.912L645.651 291.288C645.651 293.215 645.163 294.694 644.189 295.725 643.214 296.756 641.809 297.272 639.973 297.272 638.137 297.272 636.731 296.756 635.757 295.725 634.782 294.694 634.295 293.215 634.295 291.288L634.295 278.912ZM655.987 290.098 658.537 273.2 663.739 273.2 663.739 297 660.203 297 660.203 279.932 657.619 297 654.083 297 651.295 280.17 651.295 297 648.031 297 648.031 273.2 653.233 273.2 655.987 290.098ZM560.402 362.398 559.11 364.83 559.11 373 554.93 373 554.93 346.4 559.11 346.4 559.11 357.99 564.582 346.4 568.762 346.4 562.948 358.256 568.762 373 564.468 373 560.402 362.398ZM574.386 353.734 574.386 373 570.624 373 570.624 346.4 575.868 346.4 580.162 362.322 580.162 346.4 583.886 346.4 583.886 373 579.592 373 574.386 353.734ZM590.726 366.882C590.726 367.845 590.922 368.522 591.315 368.915 591.708 369.308 592.233 369.504 592.892 369.504 593.551 369.504 594.076 369.308 594.469 368.915 594.862 368.522 595.058 367.845 595.058 366.882L595.058 352.518C595.058 351.555 594.862 350.878 594.469 350.485 594.076 350.092 593.551 349.896 592.892 349.896 592.233 349.896 591.708 350.092 591.315 350.485 590.922 350.878 590.726 351.555 590.726 352.518L590.726 366.882ZM586.546 352.784C586.546 350.631 587.091 348.978 588.18 347.825 589.269 346.672 590.84 346.096 592.892 346.096 594.944 346.096 596.515 346.672 597.604 347.825 598.693 348.978 599.238 350.631 599.238 352.784L599.238 366.616C599.238 368.769 598.693 370.422 597.604 371.575 596.515 372.728 594.944 373.304 592.892 373.304 590.84 373.304 589.269 372.728 588.18 371.575 587.091 370.422 586.546 368.769 586.546 366.616L586.546 352.784ZM611.208 358.826 609.688 373 603.95 373 600.986 346.4 605.052 346.4 607.294 367.376 609.308 346.4 613.336 346.4 615.426 367.528 617.592 346.4 621.24 346.4 618.276 373 612.728 373 611.208 358.826ZM623.33 346.4 627.51 346.4 627.51 369.2 634.388 369.2 634.388 373 623.33 373 623.33 346.4ZM640.392 357.61 646.13 357.61 646.13 361.41 640.392 361.41 640.392 369.2 647.612 369.2 647.612 373 636.212 373 636.212 346.4 647.612 346.4 647.612 350.2 640.392 350.2 640.392 357.61ZM650.196 346.4 656.808 346.4C658.911 346.4 660.475 346.957 661.501 348.072 662.527 349.187 663.04 350.821 663.04 352.974L663.04 366.426C663.04 368.579 662.527 370.213 661.501 371.328 660.475 372.443 658.911 373 656.808 373L650.196 373 650.196 346.4ZM654.376 350.2 654.376 369.2 656.732 369.2C657.391 369.2 657.91 369.01 658.29 368.63 658.67 368.25 658.86 367.579 658.86 366.616L658.86 352.784C658.86 351.821 658.67 351.15 658.29 350.77 657.91 350.39 657.391 350.2 656.732 350.2L654.376 350.2ZM671.97 358.18 677.822 358.18 677.822 366.616C677.822 368.769 677.296 370.422 676.245 371.575 675.194 372.728 673.642 373.304 671.59 373.304 669.538 373.304 667.986 372.728 666.935 371.575 665.884 370.422 665.358 368.769 665.358 366.616L665.358 352.784C665.358 350.631 665.884 348.978 666.935 347.825 667.986 346.672 669.538 346.096 671.59 346.096 673.642 346.096 675.194 346.672 676.245 347.825 677.296 348.978 677.822 350.631 677.822 352.784L677.822 355.368 673.87 355.368 673.87 352.518C673.87 351.555 673.674 350.878 673.281 350.485 672.888 350.092 672.363 349.896 671.704 349.896 671.045 349.896 670.52 350.092 670.127 350.485 669.734 350.878 669.538 351.555 669.538 352.518L669.538 366.882C669.538 367.845 669.734 368.516 670.127 368.896 670.52 369.276 671.045 369.466 671.704 369.466 672.363 369.466 672.888 369.276 673.281 368.896 673.674 368.516 673.87 367.845 673.87 366.882L673.87 361.98 671.97 361.98 671.97 358.18ZM684.7 357.61 690.438 357.61 690.438 361.41 684.7 361.41 684.7 369.2 691.92 369.2 691.92 373 680.52 373 680.52 346.4 691.92 346.4 691.92 350.2 684.7 350.2 684.7 357.61ZM538.708 422.6 543.328 422.6 543.328 452 538.708 452 538.708 422.6ZM550.804 430.706 550.804 452 546.646 452 546.646 422.6 552.442 422.6 557.188 440.198 557.188 422.6 561.304 422.6 561.304 452 556.558 452 550.804 430.706ZM569.242 435.662 575.206 435.662 575.206 439.862 569.242 439.862 569.242 452 564.622 452 564.622 422.6 576.844 422.6 576.844 426.8 569.242 426.8 569.242 435.662ZM583.312 445.238C583.312 446.302 583.529 447.051 583.963 447.485 584.397 447.919 584.978 448.136 585.706 448.136 586.434 448.136 587.015 447.919 587.449 447.485 587.883 447.051 588.1 446.302 588.1 445.238L588.1 429.362C588.1 428.298 587.883 427.549 587.449 427.115 587.015 426.681 586.434 426.464 585.706 426.464 584.978 426.464 584.397 426.681 583.963 427.115 583.529 427.549 583.312 428.298 583.312 429.362L583.312 445.238ZM578.692 429.656C578.692 427.276 579.294 425.449 580.498 424.175 581.702 422.901 583.438 422.264 585.706 422.264 587.974 422.264 589.71 422.901 590.914 424.175 592.118 425.449 592.72 427.276 592.72 429.656L592.72 444.944C592.72 447.324 592.118 449.151 590.914 450.425 589.71 451.699 587.974 452.336 585.706 452.336 583.438 452.336 581.702 451.699 580.498 450.425 579.294 449.151 578.692 447.324 578.692 444.944L578.692 429.656ZM605.362 452C605.306 451.804 605.25 451.622 605.194 451.454 605.138 451.286 605.089 451.076 605.047 450.824 605.005 450.572 604.977 450.25 604.963 449.858 604.949 449.466 604.942 448.976 604.942 448.388L604.942 443.768C604.942 442.396 604.704 441.43 604.228 440.87 603.752 440.31 602.982 440.03 601.918 440.03L600.322 440.03 600.322 452 595.702 452 595.702 422.6 602.674 422.6C605.082 422.6 606.825 423.16 607.903 424.28 608.981 425.4 609.52 427.094 609.52 429.362L609.52 431.672C609.52 434.696 608.512 436.684 606.496 437.636 607.672 438.112 608.477 438.889 608.911 439.967 609.345 441.045 609.562 442.354 609.562 443.894L609.562 448.43C609.562 449.158 609.59 449.795 609.646 450.341 609.702 450.887 609.842 451.44 610.066 452L605.362 452ZM600.322 426.8 600.322 435.83 602.128 435.83C602.996 435.83 603.675 435.606 604.165 435.158 604.655 434.71 604.9 433.898 604.9 432.722L604.9 429.824C604.9 428.76 604.711 427.99 604.333 427.514 603.955 427.038 603.36 426.8 602.548 426.8L600.322 426.8ZM622.372 443.474 625.522 422.6 631.948 422.6 631.948 452 627.58 452 627.58 430.916 624.388 452 620.02 452 616.576 431.21 616.576 452 612.544 452 612.544 422.6 618.97 422.6 622.372 443.474ZM650.26 452 645.598 452 644.8 446.666 639.13 446.666 638.332 452 634.09 452 638.794 422.6 645.556 422.6 650.26 452ZM639.718 442.676 644.17 442.676 641.944 427.808 639.718 442.676ZM651.058 422.6 665.338 422.6 665.338 426.8 660.508 426.8 660.508 452 655.888 452 655.888 426.8 651.058 426.8 651.058 422.6ZM667.354 422.6 671.974 422.6 671.974 452 667.354 452 667.354 422.6ZM679.576 445.238C679.576 446.302 679.793 447.051 680.227 447.485 680.661 447.919 681.242 448.136 681.97 448.136 682.698 448.136 683.279 447.919 683.713 447.485 684.147 447.051 684.364 446.302 684.364 445.238L684.364 429.362C684.364 428.298 684.147 427.549 683.713 427.115 683.279 426.681 682.698 426.464 681.97 426.464 681.242 426.464 680.661 426.681 680.227 427.115 679.793 427.549 679.576 428.298 679.576 429.362L679.576 445.238ZM674.956 429.656C674.956 427.276 675.558 425.449 676.762 424.175 677.966 422.901 679.702 422.264 681.97 422.264 684.238 422.264 685.974 422.901 687.178 424.175 688.382 425.449 688.984 427.276 688.984 429.656L688.984 444.944C688.984 447.324 688.382 449.151 687.178 450.425 685.974 451.699 684.238 452.336 681.97 452.336 679.702 452.336 677.966 451.699 676.762 450.425 675.558 449.151 674.956 447.324 674.956 444.944L674.956 429.656ZM696.082 430.706 696.082 452 691.924 452 691.924 422.6 697.72 422.6 702.466 440.198 702.466 422.6 706.582 422.6 706.582 452 701.836 452 696.082 430.706ZM588.046 503.8 596.05 503.8C598.595 503.8 600.489 504.475 601.731 505.824 602.973 507.173 603.594 509.151 603.594 511.758L603.594 528.042C603.594 530.649 602.973 532.627 601.731 533.976 600.489 535.325 598.595 536 596.05 536L588.046 536 588.046 503.8ZM593.106 508.4 593.106 531.4 595.958 531.4C596.755 531.4 597.384 531.17 597.844 530.71 598.304 530.25 598.534 529.437 598.534 528.272L598.534 511.528C598.534 510.363 598.304 509.55 597.844 509.09 597.384 508.63 596.755 508.4 595.958 508.4L593.106 508.4ZM623.19 536 618.084 536 617.21 530.158 611 530.158 610.126 536 605.48 536 610.632 503.8 618.038 503.8 623.19 536ZM611.644 525.788 616.52 525.788 614.082 509.504 611.644 525.788ZM624.064 503.8 639.704 503.8 639.704 508.4 634.414 508.4 634.414 536 629.354 536 629.354 508.4 624.064 508.4 624.064 503.8ZM658.288 536 653.182 536 652.308 530.158 646.098 530.158 645.224 536 640.578 536 645.73 503.8 653.136 503.8 658.288 536ZM646.742 525.788 651.618 525.788 649.18 509.504 646.742 525.788Z" fill="#FFFFFF" fill-rule="evenodd"/></g></svg>